<?xml version="1.0" encoding="utf-8"?>
<!-- Generator: Adobe Illustrator 24.1.0, SVG Export Plug-In . SVG Version: 6.00 Build 0)  -->
<svg version="1.1" id="Calque_1" xmlns="http://www.w3.org/2000/svg" xmlns:xlink="http://www.w3.org/1999/xlink" x="0px" y="0px"
	 viewBox="0 0 237.7 217.7" style="enable-background:new 0 0 237.7 217.7;" xml:space="preserve">
<style type="text/css">
	.st0{enable-background:new    ;}
	.st1{fill:#FF6B35;}
	.st2{fill:#4BE1E9;}
</style>
<g>
	<g class="st0">
		<path class="st1" d="M95,121.1c-1.2,0-2.5,0-3.7,0c-1.9-5.7-4.5-13.3-5.5-16.4H77c-1.2,3.6-3.9,11.7-5.5,16.4h-0.7l11.8-34.8h0.7
			L95,121.1z M85.6,104c-1.2-3.5-2.4-7-4.2-12.4c-1.2,3.5-2.7,8-4.1,12.4H85.6z"/>
		<path class="st1" d="M119.5,105.1l8.4,15.9c-1.2,0-2.7,0-3.7,0l-8.1-15.3c-0.6,0.1-1.3,0.1-2,0.1c-3.1,0-3.2,0-5.7,0v15.2
			c-1.1,0-2.2,0-3.7,0V86.2c2.5,0,4.5-0.5,9.4-0.5c7.9,0,13,4.2,13,10.1C127.1,100.3,124.2,103.7,119.5,105.1z M123.4,95.8
			c0-4.9-3.2-9.4-10.1-9.4c-1.9,0-3.4,0.2-4.9,0.3v18.4c3.1,0,3.1,0,4.9,0C120.2,105.2,123.4,100.8,123.4,95.8z"/>
		<path class="st1" d="M149.5,101.5l12.3,19.5c-1.3,0-2.5,0-3.8,0l-10.8-17.2l-10.8,17.2c-0.2,0-0.5,0-0.7,0l11.2-17.7l-10.8-17.1
			c1.2,0,2.5,0,3.7,0l9.3,14.8l9.3-14.8c0.2,0,0.5,0,0.7,0L149.5,101.5z"/>
	</g>
	<path class="st2" d="M169.7,174.6c0.3-1.4,1.1-2.5,2.3-3.2c1-0.5,2-0.7,3.1-0.5c2,0.3,3.8,2.1,3.8,4.5c0,2.2-1.6,4.1-3.7,4.5
		c-1.2,0.2-2.4,0-3.5-0.7s-1.7-1.7-2-2.9c-0.1,0-0.3,0-0.4,0c-0.2,0-0.3,0-0.5,0c-7.6,0-15.2,0-22.8,0c-0.2,0-0.4,0-0.6,0
		c0-0.1,0-0.2,0-0.3c0-0.2,0-0.3,0-0.5c0-7.4,0-14.8,0-22.1c0-0.2,0-0.4,0-0.6c-0.2,0-0.3,0.1-0.5,0.2c-1.5,0.9-3.1,1.8-4.7,2.5
		c-2.3,1.1-4.7,2-7.2,2.8c-0.2,0.1-0.3,0.1-0.5,0.2c-0.1,0.2-0.1,0.4-0.1,0.6c0,3.5,0,7,0,10.5c0,1.6,0,3.2,0,4.8c0,0.2,0,0.4,0,0.6
		c-0.4,0.1-0.9,0.1-1.6,0c0-0.1-0.1-0.2-0.1-0.3c0-0.2,0-0.3,0-0.5c0-4.9,0-9.7,0-14.6c0-0.2,0-0.4-0.1-0.6c-1,0.2-2,0.5-3.1,0.7
		c-1,0.2-2,0.4-3.1,0.5c-1,0.1-2.1,0.2-3.1,0.3s-2.1,0.1-3.1,0.2c0,0.1,0,0.2-0.1,0.3c0,0.1,0,0.2,0,0.3c0,7.9,0,15.8,0,23.7
		c0,0.2,0,0.4,0,0.6c0.2,0.1,0.3,0.1,0.5,0.2c1.6,0.4,3.3,1.9,3.3,4.3c0,2.5-1.8,4.2-3.7,4.6c-2.4,0.5-4.8-1-5.4-3.5
		c-0.5-2.3,0.8-4.6,3.1-5.4c0.2-0.1,0.4-0.1,0.5-0.2c0-0.1,0-0.2,0-0.3c0-8.2,0-16.4,0-24.6c-0.1,0-0.3-0.1-0.4-0.1
		c-0.8,0-1.5-0.1-2.3-0.1c-3.1-0.2-6.2-0.7-9.2-1.4c-0.2,0-0.4-0.1-0.6-0.1c0,0.8,0,1.5,0,2.3s0,1.5,0,2.3s0,1.5,0,2.3
		c0,0.7,0,1.5,0,2.2c0,0.8,0,1.5,0,2.3s0,1.5,0,2.3s0,1.5,0,2.3c-0.3,0.1-0.6,0.1-0.8,0.1c-0.3,0-0.5,0-0.8,0
		c-0.1-0.2-0.1-0.4-0.1-0.6c0-1.9,0-3.8,0-5.7c0-3.2,0-6.4,0-9.6c0-0.2,0-0.4,0-0.6c-1.1-0.4-2.2-0.7-3.3-1.1
		c-1.1-0.4-2.2-0.9-3.3-1.3c-1.1-0.5-2.1-1-3.2-1.5c-1-0.5-2-1.1-3.1-1.7c0,0.2-0.1,0.2-0.1,0.3c0,0.2,0,0.3,0,0.5
		c0,7.3,0,14.7,0,22c0,0.2,0,0.4,0,0.6c-0.1,0-0.2,0-0.3,0c-0.2,0-0.3,0-0.5,0c-7.6,0-15.2,0-22.9,0c-0.2,0-0.4,0-0.6,0
		c-0.1,0.2-0.1,0.3-0.1,0.4c-0.6,2-2.5,3.4-4.6,3.3c-2.6-0.1-4.3-2.3-4.4-4.4c-0.1-2.2,1.5-4.4,3.9-4.7s4.4,1.1,5.1,3.2
		c0.1,0.2,0.1,0.3,0.1,0.5c0.5,0.1,22.2,0.1,22.6,0c0-0.1,0-0.2,0-0.3s0-0.2,0-0.4c0-7.2,0-14.4,0-21.7c0-0.2,0-0.4,0-0.6
		c-0.1-0.1-0.3-0.2-0.4-0.3c-1.6-1.1-3.2-2.4-4.7-3.7c-0.3-0.2-0.5-0.3-0.8-0.3c-5.8,0-11.5,0-17.3,0c-0.2,0-0.4,0-0.6,0
		c-0.1-0.5-0.1-1.3,0-1.7c5.4,0,10.9,0,16.3,0c0.1-0.2-0.1-0.2-0.1-0.3c-1.3-1.2-2.4-2.5-3.6-3.9c-2.1-2.5-3.9-5.2-5.5-8
		c-0.1-0.1-0.2-0.3-0.2-0.4c0,0,0,0-0.1-0.1c-0.6,0-1.2,0-1.9,0c-0.7,0-1.3,0-2,0c-0.6,0-1.3,0-1.9,0s-1.3,0-1.9,0
		c-0.6,0-1.3,0-1.9,0c-0.7,0-1.3,0-2,0c-0.6,0-1.3,0-1.9,0c-0.6,0-1.3,0-1.9,0c-0.7,0-1.3,0-2,0c-0.6,0-1.3,0-1.9,0s-1.3,0-1.9,0
		c-0.7,0-1.3,0-2,0c-0.6,0-1.3,0-1.9,0s-1.3,0-1.9,0s-1.3,0-1.9,0c-0.7,0-1.3,0-2,0c-0.6,0-1.3,0-1.9,0c0-0.2,0-0.3,0-0.4
		c0-0.4,0-0.8,0-1.3c0.1,0,0.3,0,0.4,0c0.2,0,0.3,0,0.5,0c10.1,0,20.2,0,30.3,0c0.2,0,0.4,0,0.6,0c0.1-0.2,0-0.3-0.1-0.4
		c-0.8-1.7-1.5-3.4-2.2-5.1c-0.5-1.5-1-2.9-1.4-4.4c-0.1-0.2-0.1-0.4-0.2-0.6c-0.5,0-0.9,0-1.4,0s-0.9,0-1.4,0c-0.4,0-0.9,0-1.3,0
		c-0.5,0-0.9,0-1.4,0s-0.9,0-1.4,0s-0.9,0-1.4,0s-0.9,0-1.4,0c-0.4,0-0.9,0-1.3,0c-0.5,0-0.9,0-1.4,0s-0.9,0-1.4,0s-0.9,0-1.4,0
		s-0.9,0-1.4,0c-0.4,0-0.9,0-1.3,0c-0.5,0-0.9,0-1.4,0s-0.9,0-1.4,0c-0.1-0.4-0.1-1.3,0-1.8c0.2-0.1,0.4,0,0.5,0c3.2,0,6.4,0,9.6,0
		s6.3,0,9.5,0c0.2,0,0.4,0,0.7,0c0-0.6-0.2-1.2-0.3-1.8c-0.1-0.6-0.2-1.2-0.3-1.7c-0.1-0.6-0.2-1.2-0.2-1.8
		c-0.1-0.6-0.1-1.2-0.2-1.7c0-0.6-0.1-1.2-0.1-1.8c0-0.6,0-1.2-0.1-1.8c-0.1,0-0.2,0-0.3,0c-2.7-0.1-24,0-24.6,0
		c0,0.1-0.1,0.3-0.1,0.4c-0.6,2-2.4,3.3-4.5,3.3c-2.6,0-4.6-2.2-4.6-4.8c0.1-2.1,1.6-4.1,4-4.4c2.5-0.3,4.4,1.3,5,3.1
		c0.1,0.2,0.1,0.4,0.2,0.6c0.5,0.1,24.5,0,24.9,0c0.1-1.2,0.1-2.3,0.2-3.5s0.2-2.3,0.4-3.5c0.2-1.2,0.4-2.3,0.6-3.5
		C65.1,96,65,96,64.9,96c-0.2,0-0.3,0-0.5,0c-6.3,0-12.6,0-18.9,0c-0.2,0-0.4,0-0.6,0c-0.1-0.3-0.1-0.6-0.1-0.9s0-0.6,0-0.9
		c0.6-0.1,1.1,0,1.6,0s1.1,0,1.6,0s1.1,0,1.6,0s1.1,0,1.6,0s1.1,0,1.6,0s1.1,0,1.6,0s1,0,1.6,0c0.5,0,1.1,0,1.6,0s1.1,0,1.6,0
		s1.1,0,1.6,0s1.1,0,1.6,0s1.1,0,1.6,0s1.1,0,1.6,0c0.3-0.9,0.5-1.8,0.8-2.7c0.3-0.9,0.6-1.8,0.9-2.7c0.3-0.9,0.7-1.7,1-2.6
		c0.4-0.9,0.8-1.7,1.1-2.5c-0.1-0.1-0.2-0.1-0.2-0.1c-0.2,0-0.3,0-0.5,0c-10.1,0-20.2,0-30.4,0c-0.2,0-0.4,0-0.7,0
		c-0.1-0.3-0.1-0.6-0.1-0.8c0-0.3,0-0.5,0-0.8c0.1,0,0.2,0,0.3,0c0.2,0,0.3,0,0.5,0c10.4,0,20.9,0,31.3,0c0.2,0,0.4,0,0.7,0
		c0.7-1.2,1.4-2.3,2.1-3.4s1.5-2.2,2.3-3.3c0.8-1,1.6-2.1,2.5-3c0.9-1,1.8-1.9,2.7-2.9c0-0.1,0-0.1,0-0.1l0,0h-0.1
		c-5.4,0-10.8,0-16.1,0c-0.1-0.3-0.1-0.6-0.1-0.8c0-0.3,0-0.5,0-0.8c0.1,0,0.1,0,0.1,0l0,0h0.1h0.1c6,0,12,0,18,0c0,0,0,0,0.1,0
		c1.7-1.5,3.5-2.9,5.4-4.2c0-0.1,0.1-0.1,0.1-0.1s0,0,0-0.1s0-0.2,0-0.4c0-7.4,0-14.9,0-22.3v-0.1c-0.1,0-0.2,0-0.3-0.1
		c-0.1,0-0.3,0-0.4,0c-7.1,0-14.2,0-21.3,0c-0.2,0-0.4,0-0.6,0c-0.1,0.2-0.1,0.3-0.1,0.5c-0.6,2-2.5,3.4-4.6,3.3
		c-2.6-0.1-4.4-2.2-4.5-4.4s1.5-4.4,3.9-4.7s4.4,1.2,5.1,3.2c0,0.1,0.1,0.3,0.1,0.5c0.1,0,0.2,0,0.3,0c0.1,0,0.3,0,0.4,0
		c7.6,0,15.2,0,22.9,0c0.2,0,0.4,0,0.6,0c0,0.1,0,0.2,0.1,0.3c0,0.2,0,0.3,0,0.5c0,7.4,0,14.7,0,22.1c0,0.2,0,0.4,0,0.6
		c0.1,0,0.2,0,0.2-0.1c0.3-0.2,0.6-0.4,0.9-0.5c3.6-2.1,7.3-3.7,11.2-4.9c0.2,0,0.3-0.1,0.5-0.2c0.1-0.2,0.1-0.4,0.1-0.6
		c0-4.7,0-9.4,0-14.1c0-0.5,0-0.9,0-1.4c0-0.1,0-0.2,0-0.4c0.1,0,0.2,0,0.3,0c0.4,0,0.9,0,1.3,0c0.1,0.2,0,0.4,0,0.6
		c0,4.1,0,8.2,0,12.3c0,0.9,0,1.7,0,2.6c0,0.2,0,0.3,0,0.5c0.2,0,0.3,0,0.4,0c1.4-0.3,2.8-0.6,4.1-0.9c1.2-0.2,2.4-0.3,3.6-0.5
		c1.3-0.2,2.6-0.2,3.9-0.2c0.1,0,0.3,0,0.4,0c0-0.1,0-0.2,0-0.3s0-0.2,0-0.4c0-7.9,0-15.8,0-23.6c0-0.2,0-0.4,0-0.6
		c-3-0.8-4-3.3-3.7-5.3c0.3-2.1,2.2-3.7,4.3-3.8c2.3-0.1,4.3,1.5,4.7,3.5c0.1,0.6,0.2,1.2,0.1,1.8c-0.1,0.6-0.3,1.2-0.7,1.7
		c-0.3,0.5-0.8,1-1.3,1.3c-0.5,0.4-1.1,0.6-1.7,0.7c-0.1,0.4-0.1,24.3,0,24.9c0.1,0,0.2,0.1,0.3,0.1c0.4,0,0.8,0,1.1,0
		c2,0.1,4,0.3,6,0.6c1.6,0.2,3.1,0.6,4.7,0.9c0.1,0,0.2,0,0.4,0c0-0.7,0-1.3,0-2s0-1.3,0-2s0-1.3,0-2s0-1.3,0-2s0-1.3,0-2s0-1.3,0-2
		s0-1.3,0-2s0-1.3,0-2c0.3-0.1,0.6-0.1,0.8-0.1c0.3,0,0.5,0,0.8,0c0.1,0.2,0.1,0.4,0.1,0.6c0,2.4,0,4.7,0,7.1c0,2.7,0,5.5,0,8.2
		c0,0.2,0,0.4,0,0.6c0.9,0.3,1.8,0.6,2.7,0.9c0.9,0.3,1.7,0.6,2.6,1c0.9,0.4,1.7,0.8,2.6,1.2c0.8,0.4,1.7,0.8,2.5,1.3
		c0.8,0.4,1.6,0.9,2.4,1.4c0.1-0.1,0.1-0.2,0.1-0.2c0-0.2,0-0.3,0-0.5c0-7.4,0-14.7,0-22.1c0-0.2,0-0.4,0-0.6c0.1,0,0.2-0.1,0.3-0.1
		c0.2,0,0.3,0,0.5,0c7.6,0,15.3,0,22.9,0c0.2,0,0.4,0,0.6,0c0.3-1.4,1.1-2.5,2.4-3.2c1-0.5,2-0.7,3.1-0.4c2.1,0.4,3.7,2.3,3.7,4.5
		s-1.6,4.1-3.8,4.5c-1.3,0.2-2.4,0-3.4-0.7s-1.6-1.7-1.9-2.9c-0.1,0-0.3,0-0.4,0c-0.1,0-0.1,0-0.2,0c-7.1,0-14.3,0-21.4,0
		c-0.2,0-0.4,0-0.6,0.1c0,0.2,0,0.4,0,0.6c0,6.9,0,13.7,0,20.6c0,0.5,0,0.9,0,1.4c0,0.2,0.1,0.4,0.3,0.5c0.7,0.5,1.4,0.9,2,1.4
		c1.1,0.8,2.2,1.7,3.3,2.6c6,0,12.2,0,18.3,0c0.1,0.4,0.1,0.9,0.1,1.6c-0.1,0-0.2,0-0.3,0.1c-0.2,0-0.3,0-0.5,0c-5,0-10,0-15,0
		c-0.2,0-0.4,0-0.7,0c0.1,0.1,0.1,0.2,0.1,0.3c0.3,0.3,0.5,0.5,0.8,0.8c3.3,3.4,6.1,7.1,8.4,11.2c0.1,0.1,0.2,0.3,0.2,0.4
		c0.1,0,0.2,0,0.3,0c0.2,0,0.3,0,0.5,0c10.4,0,20.9,0,31.3,0c0.2,0,0.4,0,0.6,0c0.1,0.4,0.1,1.2,0,1.7c-0.1,0-0.2,0-0.3,0
		c-0.2,0-0.3,0-0.5,0c-10.1,0-20.2,0-30.4,0c-0.2,0-0.4,0-0.7,0c0,0.2,0.1,0.4,0.2,0.6c1.1,2.3,2,4.6,2.8,7c0.3,0.9,0.5,1.8,0.8,2.6
		c0,0.1,0.1,0.3,0.1,0.4c0.6,0,1.3,0,1.9,0c0.6,0,1.2,0,1.9,0c0.6,0,1.3,0,1.9,0c0.6,0,1.2,0,1.9,0c0.6,0,1.3,0,1.9,0
		c0.6,0,1.2,0,1.9,0c0.6,0,1.3,0,1.9,0c0.6,0,1.2,0,1.9,0c0.6,0,1.3,0,1.9,0c0.6,0,1.2,0,1.9,0c0.6,0,1.3,0,1.9,0
		c0.1,0.6,0,1.2,0,1.8c-0.2,0-0.2,0-0.3,0c-0.2,0-0.3,0-0.5,0c-6.3,0-12.6,0-18.9,0c-0.2,0-0.4,0-0.6,0c-0.1,0.2,0,0.4,0,0.6
		c0.3,1.6,0.6,3.2,0.8,4.7c0.2,1.6,0.3,3.2,0.3,4.8c0,0.1,0,0.2,0,0.4c0.1,0,0.2,0,0.3,0.1c0.1,0,0.3,0,0.4,0c7.9,0,15.7,0,23.6,0
		c0.2,0,0.4,0,0.6,0c0-0.2,0.1-0.3,0.1-0.4c0.6-1.8,1.8-2.9,3.7-3.3c2.7-0.5,4.9,1.4,5.3,3.8c0.4,2.2-1,4.5-3.3,5.2
		c-2.4,0.6-4.8-0.7-5.6-3c-0.1-0.2-0.1-0.4-0.2-0.6c-0.1,0-0.2,0-0.3,0s-0.3,0-0.4,0c-7.8,0-15.7,0-23.5,0c-0.2,0-0.4,0-0.7,0
		c-0.1,0.5,0,0.9-0.1,1.4c0,0.4,0,0.9-0.1,1.3c0,0.4-0.1,0.9-0.1,1.3s-0.1,0.9-0.1,1.3s-0.1,0.9-0.2,1.3c-0.1,0.4-0.1,0.9-0.2,1.3
		c-0.1,0.4-0.2,0.8-0.2,1.3c-0.1,0.4-0.2,0.9-0.2,1.4c0.7,0,1.4,0,2,0c0.7,0,1.4,0,2.1,0c0.7,0,1.3,0,2,0s1.3,0,2,0s1.4,0,2.1,0
		c0.7,0,1.3,0,2,0s1.3,0,2,0s1.3,0,2,0s1.4,0,2.1,0c0.7,0,1.3,0,2,0c0.1,0.6,0,1.2,0,1.8c-0.1,0-0.2,0.1-0.3,0.1c-0.2,0-0.3,0-0.5,0
		c-6.5,0-13,0-19.4,0c-0.2,0-0.4,0-0.6,0c-0.3,0.9-0.5,1.8-0.8,2.7c-0.3,0.9-0.6,1.8-0.9,2.7c-0.3,0.9-0.7,1.7-1,2.6
		c-0.4,0.9-0.8,1.7-1.1,2.5c0.1,0.1,0.2,0.1,0.2,0.1c0.2,0,0.3,0,0.5,0c10.2,0,20.3,0,30.5,0c0.2,0,0.4,0,0.6,0
		c0.1,0.4,0.1,1.1,0,1.6c-0.1,0-0.2,0-0.3,0c-0.2,0-0.3,0-0.5,0c-10.4,0-20.9,0-31.3,0c-0.2,0-0.4,0-0.7,0c-0.7,1.2-1.4,2.3-2.1,3.4
		c-0.7,1.1-1.5,2.2-2.3,3.3c-0.8,1-1.6,2.1-2.5,3c-0.9,1-1.8,1.9-2.7,2.9c0.1,0,0.2,0.1,0.2,0.1c0.2,0,0.3,0,0.5,0c5,0,10,0,15.1,0
		c0.2,0,0.4,0,0.6,0c0.1,0.5,0,1.1,0,1.6c-0.1,0-0.2,0-0.3,0c-0.2,0-0.3,0-0.5,0c-5.7,0-11.3,0-17,0c-0.2,0-0.4,0-0.6,0
		c-1.7,1.5-3.6,3-5.5,4.2c-0.1,0.5-0.1,22.5,0,23h0.1C154.7,174.6,162.2,174.6,169.7,174.6z M117.4,55.8
		c-28.5,0-51.6,23.1-51.6,51.5c0,28.3,22.9,51.6,51.6,51.6c28.4,0,51.6-22.9,51.6-51.5C169,78.7,145.6,55.8,117.4,55.8z M120.2,24.6
		c0-1.3-1.1-2.8-2.8-2.8c-1.6,0-2.8,1.3-2.7,2.8c0,1.8,1.5,2.8,2.8,2.8S120.2,26.2,120.2,24.6z M34.6,110.1c1.5,0,2.8-1.2,2.8-2.8
		c0-1.5-1.2-2.8-2.8-2.8c-1.7,0-2.8,1.4-2.8,2.8C31.8,109,33.1,110.2,34.6,110.1z M174.3,42.1c1.5,0,2.8-1.3,2.8-2.8
		s-1.2-2.8-2.8-2.8c-1.7,0-2.8,1.4-2.8,2.8C171.5,40.8,172.7,42.1,174.3,42.1z M174.3,178.2c1.4,0,2.8-1.2,2.8-2.8
		c0-1.5-1.3-2.7-2.8-2.8c-1.5,0-2.8,1.3-2.8,2.8C171.5,177,172.8,178.3,174.3,178.2z M117.4,187.4c-1.4,0-2.8,1.1-2.8,2.8
		s1.4,2.8,2.8,2.8c1.5,0,2.8-1.2,2.8-2.8C120.2,188.7,118.9,187.3,117.4,187.4z M60.5,42.1c1.5,0,2.8-1.3,2.8-2.8s-1.3-2.8-2.8-2.7
		c-1.5,0-2.8,1.2-2.8,2.8C57.7,41.1,59.2,42.1,60.5,42.1z M202.9,107.4c0.1-1.3-1-2.8-2.8-2.8c-1.6,0-2.8,1.3-2.8,2.8
		c0,1.7,1.4,2.8,2.8,2.8C201.7,110.2,202.9,108.8,202.9,107.4z M63.3,175.4c0-1.3-1.1-2.8-2.8-2.8c-1.5,0-2.8,1.2-2.7,2.8
		c0,1.8,1.5,2.8,2.8,2.8C62,178.2,63.3,176.9,63.3,175.4z"/>
</g>
</svg>
