<?xml version="1.0" encoding="utf-8"?>
<!-- Generator: Adobe Illustrator 24.1.0, SVG Export Plug-In . SVG Version: 6.00 Build 0)  -->
<svg version="1.1" id="Calque_1" xmlns="http://www.w3.org/2000/svg" xmlns:xlink="http://www.w3.org/1999/xlink" x="0px" y="0px"
	 viewBox="0 0 1920 1080" style="enable-background:new 0 0 1920 1080;" xml:space="preserve">
<style type="text/css">
	.st0{fill:#FF6B35;}
</style>
<g>
	<path class="st0" d="M1036.8,528.6c0.6,9.7-1.7,19.9-8.2,29c-4.4,6.2-10.1,10.8-17.1,13.8c-1,0.4-2.7,0.4-3.7-0.1
		c-15.6-7.6-23.8-20.2-24.9-37.5c-0.3-5.3,0-10.7-0.1-16c0-1.5,0.5-2.1,1.9-2.4c8.5-1.9,16.5-5.2,23.9-9.7c0.6-0.4,1.8-0.4,2.4,0
		c7.5,4.6,15.4,7.9,23.9,9.7c1.4,0.3,1.9,1,1.8,2.4C1036.7,521,1036.8,524.2,1036.8,528.6z M1019.8,525.8c2.2,1.1,2.6,4.8,5.9,3.4
		c0-3.1,0-6.2,0-9.3c-1.1,0-2,0-3,0c-0.1,1.2-0.2,2.2-0.3,3.4c-2.1-0.9-2.6-4.7-5.8-3.2c0,3.2,0,6.3,0,9.5c1.1-0.1,2-0.1,2.9-0.1
		C1019.6,528.1,1019.7,527.1,1019.8,525.8z M1022.8,541.1c-6.4-6.5-19.5-6.5-25.8,0c0.5,0.6,1.1,1.3,1.6,1.9
		c7.7-5.4,15.2-5.2,22.6,0C1021.7,542.3,1022.2,541.8,1022.8,541.1z M1006.2,519.8c0,3.3,0,6.4,0,9.5c1.1,0,2,0,2.9,0
		c0.2-0.8,0.3-1.4,0.5-2.1c0.7-0.1,1.4-0.1,2-0.3c2-0.4,3.4-1.6,3.3-3.7c0-2-1.4-3.2-3.3-3.4C1009.8,519.7,1008,519.8,1006.2,519.8z
		 M1005,520c-4.6-1.4-3.7,3.1-5.4,4.6c-1.7-1.7-1-6.3-5.7-4.5c1.2,2.9,2.3,5.7,3.6,8.5c0.7,1.5,3.3,1.4,4-0.1
		C1002.7,525.7,1003.8,522.9,1005,520z M1019.5,545.2c-5.7-4.9-14.3-4.8-19.2,0.1c0.6,0.6,1.1,1.3,1.7,1.9c5.4-3.7,10.5-3.6,15.7,0
		C1018.3,546.5,1018.9,545.9,1019.5,545.2z M1005.4,551.6c3-2.2,6-2,9,0c0.6-0.8,1.1-1.5,1.5-2.1c-3-3.2-9.9-3-12,0.2
		C1004.3,550.2,1004.7,550.8,1005.4,551.6z M1007.7,553.4c-0.1,0.2-0.2,0.5-0.2,0.7c0.7,0.9,1.5,1.9,2.4,3c0.9-1.2,1.6-2.1,2.8-3.7
		C1010.5,553.4,1009.1,553.4,1007.7,553.4z"/>
</g>
</svg>
